<mxfile host="app.diagrams.net" modified="2022-11-14T05:22:45.811Z" agent="5.0 (Macintosh; Intel Mac OS X 10_15_7) AppleWebKit/537.36 (KHTML, like Gecko) Chrome/107.0.0.0 Safari/537.36 Edg/107.0.1418.35" etag="qy3byWbHX1GH6DNgiM4h" version="20.5.3" type="github">
  <diagram id="F1_g0k_DxYNqeW0AaySJ" name="第 1 页">
    <mxGraphModel dx="1139" dy="773" grid="1" gridSize="10" guides="1" tooltips="1" connect="1" arrows="1" fold="1" page="1" pageScale="1" pageWidth="827" pageHeight="1169" math="0" shadow="0">
      <root>
        <mxCell id="0" />
        <mxCell id="1" parent="0" />
        <mxCell id="onvc5o5PFU3YK8fuT-k9-63" value="" style="rounded=0;whiteSpace=wrap;html=1;sketch=1;fontFamily=Comic Sans MS;fontSize=12;" vertex="1" parent="1">
          <mxGeometry x="110" y="530" width="400" height="540" as="geometry" />
        </mxCell>
        <mxCell id="onvc5o5PFU3YK8fuT-k9-19" style="edgeStyle=orthogonalEdgeStyle;rounded=0;orthogonalLoop=1;jettySize=auto;html=1;entryX=0;entryY=0.5;entryDx=0;entryDy=0;fontFamily=Comic Sans MS;fontSize=20;sketch=1;" edge="1" parent="1" source="onvc5o5PFU3YK8fuT-k9-1" target="onvc5o5PFU3YK8fuT-k9-7">
          <mxGeometry relative="1" as="geometry" />
        </mxCell>
        <mxCell id="onvc5o5PFU3YK8fuT-k9-20" style="edgeStyle=orthogonalEdgeStyle;rounded=0;sketch=1;orthogonalLoop=1;jettySize=auto;html=1;entryX=0;entryY=0.5;entryDx=0;entryDy=0;fontFamily=Comic Sans MS;fontSize=20;" edge="1" parent="1" source="onvc5o5PFU3YK8fuT-k9-1" target="onvc5o5PFU3YK8fuT-k9-10">
          <mxGeometry relative="1" as="geometry" />
        </mxCell>
        <mxCell id="onvc5o5PFU3YK8fuT-k9-21" style="edgeStyle=orthogonalEdgeStyle;rounded=0;sketch=1;orthogonalLoop=1;jettySize=auto;html=1;entryX=0;entryY=0.5;entryDx=0;entryDy=0;fontFamily=Comic Sans MS;fontSize=20;" edge="1" parent="1" source="onvc5o5PFU3YK8fuT-k9-1" target="onvc5o5PFU3YK8fuT-k9-11">
          <mxGeometry relative="1" as="geometry" />
        </mxCell>
        <mxCell id="onvc5o5PFU3YK8fuT-k9-57" style="edgeStyle=orthogonalEdgeStyle;rounded=0;sketch=1;orthogonalLoop=1;jettySize=auto;html=1;fontFamily=Comic Sans MS;fontSize=12;" edge="1" parent="1" source="onvc5o5PFU3YK8fuT-k9-1" target="onvc5o5PFU3YK8fuT-k9-6">
          <mxGeometry relative="1" as="geometry">
            <Array as="points">
              <mxPoint x="230" y="439" />
            </Array>
          </mxGeometry>
        </mxCell>
        <mxCell id="onvc5o5PFU3YK8fuT-k9-58" value="Upload Config Jsons" style="edgeLabel;html=1;align=center;verticalAlign=middle;resizable=0;points=[];fontSize=12;fontFamily=Comic Sans MS;" vertex="1" connectable="0" parent="onvc5o5PFU3YK8fuT-k9-57">
          <mxGeometry x="-0.3349" y="1" relative="1" as="geometry">
            <mxPoint x="1" as="offset" />
          </mxGeometry>
        </mxCell>
        <mxCell id="onvc5o5PFU3YK8fuT-k9-1" value="&lt;font&gt;Push Configs&lt;/font&gt;" style="ellipse;whiteSpace=wrap;html=1;aspect=fixed;sketch=1;fontFamily=Comic Sans MS;fillColor=#ffe6cc;strokeColor=#d79b00;fillStyle=solid;" vertex="1" parent="1">
          <mxGeometry x="190" y="620" width="80" height="80" as="geometry" />
        </mxCell>
        <mxCell id="onvc5o5PFU3YK8fuT-k9-2" value="&lt;font&gt;GIT&lt;br&gt;PIPELINE&lt;br&gt;&lt;/font&gt;" style="rounded=0;whiteSpace=wrap;html=1;sketch=1;fontFamily=Comic Sans MS;" vertex="1" parent="1">
          <mxGeometry x="50" y="530" width="60" height="580" as="geometry" />
        </mxCell>
        <mxCell id="onvc5o5PFU3YK8fuT-k9-59" style="edgeStyle=orthogonalEdgeStyle;rounded=0;sketch=1;orthogonalLoop=1;jettySize=auto;html=1;fontFamily=Comic Sans MS;fontSize=12;" edge="1" parent="1" source="onvc5o5PFU3YK8fuT-k9-6">
          <mxGeometry relative="1" as="geometry">
            <mxPoint x="700" y="530" as="targetPoint" />
            <Array as="points">
              <mxPoint x="308" y="380" />
              <mxPoint x="700" y="380" />
            </Array>
          </mxGeometry>
        </mxCell>
        <mxCell id="onvc5o5PFU3YK8fuT-k9-60" value="Get Config Jsons" style="edgeLabel;html=1;align=center;verticalAlign=middle;resizable=0;points=[];fontSize=12;fontFamily=Comic Sans MS;" vertex="1" connectable="0" parent="onvc5o5PFU3YK8fuT-k9-59">
          <mxGeometry x="0.6996" y="3" relative="1" as="geometry">
            <mxPoint as="offset" />
          </mxGeometry>
        </mxCell>
        <mxCell id="onvc5o5PFU3YK8fuT-k9-6" value="S3" style="sketch=0;outlineConnect=0;fontColor=#232F3E;gradientColor=none;fillColor=#3F8624;strokeColor=none;dashed=0;verticalLabelPosition=bottom;verticalAlign=top;align=center;html=1;fontSize=12;fontStyle=0;aspect=fixed;pointerEvents=1;shape=mxgraph.aws4.bucket;fontFamily=Comic Sans MS;" vertex="1" parent="1">
          <mxGeometry x="270" y="400" width="75" height="78" as="geometry" />
        </mxCell>
        <mxCell id="onvc5o5PFU3YK8fuT-k9-40" style="edgeStyle=orthogonalEdgeStyle;rounded=0;sketch=1;orthogonalLoop=1;jettySize=auto;html=1;fontFamily=Comic Sans MS;fontSize=12;entryX=-0.05;entryY=0.159;entryDx=0;entryDy=0;entryPerimeter=0;" edge="1" parent="1" source="onvc5o5PFU3YK8fuT-k9-7" target="onvc5o5PFU3YK8fuT-k9-45">
          <mxGeometry relative="1" as="geometry">
            <mxPoint x="510" y="570" as="targetPoint" />
          </mxGeometry>
        </mxCell>
        <mxCell id="onvc5o5PFU3YK8fuT-k9-7" value="&lt;font&gt;Apply QA&lt;/font&gt;" style="ellipse;whiteSpace=wrap;html=1;aspect=fixed;sketch=1;fontFamily=Comic Sans MS;fillColor=#ffe6cc;strokeColor=#d79b00;fillStyle=solid;" vertex="1" parent="1">
          <mxGeometry x="374" y="540" width="60" height="60" as="geometry" />
        </mxCell>
        <mxCell id="onvc5o5PFU3YK8fuT-k9-46" style="edgeStyle=orthogonalEdgeStyle;rounded=0;sketch=1;orthogonalLoop=1;jettySize=auto;html=1;entryX=-0.07;entryY=0.469;entryDx=0;entryDy=0;entryPerimeter=0;fontFamily=Comic Sans MS;fontSize=12;" edge="1" parent="1" source="onvc5o5PFU3YK8fuT-k9-10" target="onvc5o5PFU3YK8fuT-k9-45">
          <mxGeometry relative="1" as="geometry" />
        </mxCell>
        <mxCell id="onvc5o5PFU3YK8fuT-k9-10" value="&lt;font&gt;Apply Rel&lt;/font&gt;" style="ellipse;whiteSpace=wrap;html=1;aspect=fixed;sketch=1;fontFamily=Comic Sans MS;fillStyle=solid;fillColor=#ffe6cc;strokeColor=#d79b00;" vertex="1" parent="1">
          <mxGeometry x="374" y="610" width="60" height="60" as="geometry" />
        </mxCell>
        <mxCell id="onvc5o5PFU3YK8fuT-k9-47" style="edgeStyle=orthogonalEdgeStyle;rounded=0;sketch=1;orthogonalLoop=1;jettySize=auto;html=1;entryX=0.01;entryY=0.867;entryDx=0;entryDy=0;entryPerimeter=0;fontFamily=Comic Sans MS;fontSize=12;" edge="1" parent="1" source="onvc5o5PFU3YK8fuT-k9-11" target="onvc5o5PFU3YK8fuT-k9-45">
          <mxGeometry relative="1" as="geometry" />
        </mxCell>
        <mxCell id="onvc5o5PFU3YK8fuT-k9-11" value="&lt;font&gt;Apply Prod&lt;/font&gt;" style="ellipse;whiteSpace=wrap;html=1;aspect=fixed;sketch=1;fontFamily=Comic Sans MS;fillStyle=solid;fillColor=#ffe6cc;strokeColor=#d79b00;" vertex="1" parent="1">
          <mxGeometry x="374" y="700" width="60" height="60" as="geometry" />
        </mxCell>
        <mxCell id="onvc5o5PFU3YK8fuT-k9-12" value="&lt;font style=&quot;font-size: 20px;&quot;&gt;...&lt;/font&gt;" style="text;html=1;align=center;verticalAlign=middle;resizable=0;points=[];autosize=1;strokeColor=none;fillColor=none;fontFamily=Comic Sans MS;" vertex="1" parent="1">
          <mxGeometry x="380" y="660" width="40" height="40" as="geometry" />
        </mxCell>
        <mxCell id="onvc5o5PFU3YK8fuT-k9-25" style="edgeStyle=orthogonalEdgeStyle;rounded=0;sketch=1;orthogonalLoop=1;jettySize=auto;html=1;entryX=0;entryY=0.5;entryDx=0;entryDy=0;fontFamily=Comic Sans MS;fontSize=20;" edge="1" parent="1" source="onvc5o5PFU3YK8fuT-k9-13" target="onvc5o5PFU3YK8fuT-k9-15">
          <mxGeometry relative="1" as="geometry" />
        </mxCell>
        <mxCell id="onvc5o5PFU3YK8fuT-k9-26" style="edgeStyle=orthogonalEdgeStyle;rounded=0;sketch=1;orthogonalLoop=1;jettySize=auto;html=1;entryX=0;entryY=0.5;entryDx=0;entryDy=0;fontFamily=Comic Sans MS;fontSize=20;" edge="1" parent="1" source="onvc5o5PFU3YK8fuT-k9-13" target="onvc5o5PFU3YK8fuT-k9-16">
          <mxGeometry relative="1" as="geometry" />
        </mxCell>
        <mxCell id="onvc5o5PFU3YK8fuT-k9-27" style="edgeStyle=orthogonalEdgeStyle;rounded=0;sketch=1;orthogonalLoop=1;jettySize=auto;html=1;entryX=0;entryY=0.5;entryDx=0;entryDy=0;fontFamily=Comic Sans MS;fontSize=20;" edge="1" parent="1" source="onvc5o5PFU3YK8fuT-k9-13" target="onvc5o5PFU3YK8fuT-k9-17">
          <mxGeometry relative="1" as="geometry" />
        </mxCell>
        <mxCell id="onvc5o5PFU3YK8fuT-k9-13" value="&lt;font&gt;Build&lt;/font&gt;" style="ellipse;whiteSpace=wrap;html=1;aspect=fixed;sketch=1;fontFamily=Comic Sans MS;fillColor=#dae8fc;strokeColor=#6c8ebf;fillStyle=solid;" vertex="1" parent="1">
          <mxGeometry x="190" y="912" width="80" height="80" as="geometry" />
        </mxCell>
        <mxCell id="onvc5o5PFU3YK8fuT-k9-15" value="&lt;font&gt;Apply QA&lt;/font&gt;" style="ellipse;whiteSpace=wrap;html=1;aspect=fixed;sketch=1;fontFamily=Comic Sans MS;fillColor=#DAE8FC;fillStyle=solid;strokeColor=#6C8EBF;" vertex="1" parent="1">
          <mxGeometry x="380" y="842" width="60" height="60" as="geometry" />
        </mxCell>
        <mxCell id="onvc5o5PFU3YK8fuT-k9-16" value="&lt;font&gt;Apply Rel&lt;/font&gt;" style="ellipse;whiteSpace=wrap;html=1;aspect=fixed;sketch=1;fontFamily=Comic Sans MS;fillStyle=solid;fillColor=#DAE8FC;strokeColor=#6C8EBF;" vertex="1" parent="1">
          <mxGeometry x="380" y="912" width="60" height="60" as="geometry" />
        </mxCell>
        <mxCell id="onvc5o5PFU3YK8fuT-k9-17" value="&lt;font&gt;Apply Prod&lt;/font&gt;" style="ellipse;whiteSpace=wrap;html=1;aspect=fixed;sketch=1;fontFamily=Comic Sans MS;fillStyle=solid;fillColor=#DAE8FC;strokeColor=#6C8EBF;" vertex="1" parent="1">
          <mxGeometry x="380" y="1002" width="60" height="60" as="geometry" />
        </mxCell>
        <mxCell id="onvc5o5PFU3YK8fuT-k9-18" value="&lt;font style=&quot;font-size: 20px;&quot;&gt;...&lt;/font&gt;" style="text;html=1;align=center;verticalAlign=middle;resizable=0;points=[];autosize=1;strokeColor=none;fillColor=none;fontFamily=Comic Sans MS;" vertex="1" parent="1">
          <mxGeometry x="386" y="962" width="40" height="40" as="geometry" />
        </mxCell>
        <mxCell id="onvc5o5PFU3YK8fuT-k9-28" value="&lt;font style=&quot;font-size: 12px;&quot;&gt;SQS&lt;/font&gt;" style="outlineConnect=0;dashed=0;verticalLabelPosition=bottom;verticalAlign=top;align=center;html=1;shape=mxgraph.aws3.sqs;fillColor=#D9A741;gradientColor=none;sketch=0;fontFamily=Comic Sans MS;fontSize=20;" vertex="1" parent="1">
          <mxGeometry x="560" y="405" width="56.5" height="68" as="geometry" />
        </mxCell>
        <mxCell id="onvc5o5PFU3YK8fuT-k9-53" value="Upsert" style="edgeStyle=orthogonalEdgeStyle;rounded=0;sketch=1;orthogonalLoop=1;jettySize=auto;html=1;fontFamily=Comic Sans MS;fontSize=12;" edge="1" parent="1" source="onvc5o5PFU3YK8fuT-k9-29" target="onvc5o5PFU3YK8fuT-k9-33">
          <mxGeometry relative="1" as="geometry" />
        </mxCell>
        <mxCell id="onvc5o5PFU3YK8fuT-k9-29" value="QA Server" style="rounded=1;whiteSpace=wrap;html=1;sketch=1;fontFamily=Comic Sans MS;fontSize=12;" vertex="1" parent="1">
          <mxGeometry x="650" y="534" width="90" height="40" as="geometry" />
        </mxCell>
        <mxCell id="onvc5o5PFU3YK8fuT-k9-54" style="edgeStyle=orthogonalEdgeStyle;rounded=0;sketch=1;orthogonalLoop=1;jettySize=auto;html=1;fontFamily=Comic Sans MS;fontSize=12;" edge="1" parent="1" source="onvc5o5PFU3YK8fuT-k9-30" target="onvc5o5PFU3YK8fuT-k9-34">
          <mxGeometry relative="1" as="geometry" />
        </mxCell>
        <mxCell id="onvc5o5PFU3YK8fuT-k9-70" value="Upsert" style="edgeLabel;html=1;align=center;verticalAlign=middle;resizable=0;points=[];fontSize=12;fontFamily=Comic Sans MS;" vertex="1" connectable="0" parent="onvc5o5PFU3YK8fuT-k9-54">
          <mxGeometry x="-0.1222" y="5" relative="1" as="geometry">
            <mxPoint as="offset" />
          </mxGeometry>
        </mxCell>
        <mxCell id="onvc5o5PFU3YK8fuT-k9-30" value="Rel Server" style="rounded=1;whiteSpace=wrap;html=1;sketch=1;fontFamily=Comic Sans MS;fontSize=12;" vertex="1" parent="1">
          <mxGeometry x="650" y="634" width="90" height="40" as="geometry" />
        </mxCell>
        <mxCell id="onvc5o5PFU3YK8fuT-k9-55" style="edgeStyle=orthogonalEdgeStyle;rounded=0;sketch=1;orthogonalLoop=1;jettySize=auto;html=1;fontFamily=Comic Sans MS;fontSize=12;" edge="1" parent="1" source="onvc5o5PFU3YK8fuT-k9-31" target="onvc5o5PFU3YK8fuT-k9-35">
          <mxGeometry relative="1" as="geometry" />
        </mxCell>
        <mxCell id="onvc5o5PFU3YK8fuT-k9-71" value="Upsert" style="edgeLabel;html=1;align=center;verticalAlign=middle;resizable=0;points=[];fontSize=12;fontFamily=Comic Sans MS;" vertex="1" connectable="0" parent="onvc5o5PFU3YK8fuT-k9-55">
          <mxGeometry x="-0.0333" y="2" relative="1" as="geometry">
            <mxPoint as="offset" />
          </mxGeometry>
        </mxCell>
        <mxCell id="onvc5o5PFU3YK8fuT-k9-31" value="Prod Server" style="rounded=1;whiteSpace=wrap;html=1;sketch=1;fontFamily=Comic Sans MS;fontSize=12;" vertex="1" parent="1">
          <mxGeometry x="650" y="724" width="90" height="40" as="geometry" />
        </mxCell>
        <mxCell id="onvc5o5PFU3YK8fuT-k9-32" value="&lt;font style=&quot;font-size: 20px;&quot;&gt;...&lt;/font&gt;" style="text;html=1;align=center;verticalAlign=middle;resizable=0;points=[];autosize=1;strokeColor=none;fillColor=none;fontFamily=Comic Sans MS;" vertex="1" parent="1">
          <mxGeometry x="675" y="670" width="40" height="40" as="geometry" />
        </mxCell>
        <mxCell id="onvc5o5PFU3YK8fuT-k9-33" value="QA DB" style="sketch=0;outlineConnect=0;fontColor=#232F3E;gradientColor=none;fillColor=#2E27AD;strokeColor=none;dashed=0;verticalLabelPosition=bottom;verticalAlign=top;align=center;html=1;fontSize=12;fontStyle=0;aspect=fixed;pointerEvents=1;shape=mxgraph.aws4.aurora_instance;fontFamily=Comic Sans MS;" vertex="1" parent="1">
          <mxGeometry x="830" y="520" width="68" height="68" as="geometry" />
        </mxCell>
        <mxCell id="onvc5o5PFU3YK8fuT-k9-34" value="REL DB" style="sketch=0;outlineConnect=0;fontColor=#232F3E;gradientColor=none;fillColor=#2E27AD;strokeColor=none;dashed=0;verticalLabelPosition=bottom;verticalAlign=top;align=center;html=1;fontSize=12;fontStyle=0;aspect=fixed;pointerEvents=1;shape=mxgraph.aws4.aurora_instance;fontFamily=Comic Sans MS;" vertex="1" parent="1">
          <mxGeometry x="830" y="620" width="68" height="68" as="geometry" />
        </mxCell>
        <mxCell id="onvc5o5PFU3YK8fuT-k9-35" value="PROD DB" style="sketch=0;outlineConnect=0;fontColor=#232F3E;gradientColor=none;fillColor=#2E27AD;strokeColor=none;dashed=0;verticalLabelPosition=bottom;verticalAlign=top;align=center;html=1;fontSize=12;fontStyle=0;aspect=fixed;pointerEvents=1;shape=mxgraph.aws4.aurora_instance;fontFamily=Comic Sans MS;" vertex="1" parent="1">
          <mxGeometry x="830" y="710" width="68" height="68" as="geometry" />
        </mxCell>
        <mxCell id="onvc5o5PFU3YK8fuT-k9-44" style="edgeStyle=orthogonalEdgeStyle;rounded=0;sketch=1;orthogonalLoop=1;jettySize=auto;html=1;entryX=0.5;entryY=1;entryDx=0;entryDy=0;fontFamily=Comic Sans MS;fontSize=12;" edge="1" parent="1" source="onvc5o5PFU3YK8fuT-k9-43" target="onvc5o5PFU3YK8fuT-k9-31">
          <mxGeometry relative="1" as="geometry" />
        </mxCell>
        <mxCell id="onvc5o5PFU3YK8fuT-k9-68" value="Deploy" style="edgeLabel;html=1;align=center;verticalAlign=middle;resizable=0;points=[];fontSize=12;fontFamily=Comic Sans MS;" vertex="1" connectable="0" parent="onvc5o5PFU3YK8fuT-k9-44">
          <mxGeometry x="-0.536" y="4" relative="1" as="geometry">
            <mxPoint x="37" y="4" as="offset" />
          </mxGeometry>
        </mxCell>
        <mxCell id="onvc5o5PFU3YK8fuT-k9-43" value="" style="shape=curlyBracket;whiteSpace=wrap;html=1;rounded=1;flipH=1;labelPosition=right;verticalLabelPosition=middle;align=left;verticalAlign=middle;sketch=1;fontFamily=Comic Sans MS;fontSize=12;" vertex="1" parent="1">
          <mxGeometry x="460" y="872" width="20" height="160" as="geometry" />
        </mxCell>
        <mxCell id="onvc5o5PFU3YK8fuT-k9-45" value="M&lt;br&gt;E&lt;br&gt;S&lt;br&gt;S&lt;br&gt;A&lt;br&gt;G&lt;br&gt;E" style="rounded=0;whiteSpace=wrap;html=1;sketch=1;fontFamily=Comic Sans MS;fontSize=12;" vertex="1" parent="1">
          <mxGeometry x="560" y="534" width="50" height="226" as="geometry" />
        </mxCell>
        <mxCell id="onvc5o5PFU3YK8fuT-k9-48" value="" style="endArrow=classic;html=1;rounded=0;sketch=1;fontFamily=Comic Sans MS;fontSize=12;entryX=0;entryY=0.5;entryDx=0;entryDy=0;" edge="1" parent="1" target="onvc5o5PFU3YK8fuT-k9-29">
          <mxGeometry width="50" height="50" relative="1" as="geometry">
            <mxPoint x="610" y="554" as="sourcePoint" />
            <mxPoint x="660" y="510" as="targetPoint" />
          </mxGeometry>
        </mxCell>
        <mxCell id="onvc5o5PFU3YK8fuT-k9-49" value="Listen" style="text;html=1;align=center;verticalAlign=middle;resizable=0;points=[];autosize=1;strokeColor=none;fillColor=none;fontSize=12;fontFamily=Comic Sans MS;" vertex="1" parent="1">
          <mxGeometry x="600" y="515" width="60" height="30" as="geometry" />
        </mxCell>
        <mxCell id="onvc5o5PFU3YK8fuT-k9-51" value="" style="endArrow=classic;html=1;rounded=0;sketch=1;fontFamily=Comic Sans MS;fontSize=12;entryX=0;entryY=0.5;entryDx=0;entryDy=0;" edge="1" parent="1">
          <mxGeometry width="50" height="50" relative="1" as="geometry">
            <mxPoint x="610" y="653.5" as="sourcePoint" />
            <mxPoint x="650" y="653.5" as="targetPoint" />
          </mxGeometry>
        </mxCell>
        <mxCell id="onvc5o5PFU3YK8fuT-k9-52" value="" style="endArrow=classic;html=1;rounded=0;sketch=1;fontFamily=Comic Sans MS;fontSize=12;entryX=0;entryY=0.5;entryDx=0;entryDy=0;" edge="1" parent="1">
          <mxGeometry width="50" height="50" relative="1" as="geometry">
            <mxPoint x="610" y="743.5" as="sourcePoint" />
            <mxPoint x="650" y="743.5" as="targetPoint" />
          </mxGeometry>
        </mxCell>
        <mxCell id="onvc5o5PFU3YK8fuT-k9-56" value="Send Trigger Message" style="text;html=1;align=center;verticalAlign=middle;resizable=0;points=[];autosize=1;strokeColor=none;fillColor=none;fontSize=12;fontFamily=Comic Sans MS;" vertex="1" parent="1">
          <mxGeometry x="420" y="539" width="150" height="30" as="geometry" />
        </mxCell>
        <mxCell id="onvc5o5PFU3YK8fuT-k9-64" value="&lt;span style=&quot;&quot;&gt;Stage 1&lt;/span&gt;" style="rounded=0;whiteSpace=wrap;html=1;sketch=1;fontFamily=Comic Sans MS;fontSize=12;" vertex="1" parent="1">
          <mxGeometry x="110" y="1070" width="200" height="40" as="geometry" />
        </mxCell>
        <mxCell id="onvc5o5PFU3YK8fuT-k9-66" value="&lt;span style=&quot;&quot;&gt;Stage 2&lt;/span&gt;" style="rounded=0;whiteSpace=wrap;html=1;sketch=1;fontFamily=Comic Sans MS;fontSize=12;" vertex="1" parent="1">
          <mxGeometry x="310" y="1070" width="200" height="40" as="geometry" />
        </mxCell>
        <mxCell id="onvc5o5PFU3YK8fuT-k9-67" value="" style="endArrow=none;dashed=1;html=1;rounded=0;sketch=1;fontFamily=Comic Sans MS;fontSize=12;entryX=0.5;entryY=0;entryDx=0;entryDy=0;exitX=0;exitY=0;exitDx=0;exitDy=0;" edge="1" parent="1" source="onvc5o5PFU3YK8fuT-k9-66" target="onvc5o5PFU3YK8fuT-k9-63">
          <mxGeometry width="50" height="50" relative="1" as="geometry">
            <mxPoint x="480" y="850" as="sourcePoint" />
            <mxPoint x="530" y="800" as="targetPoint" />
          </mxGeometry>
        </mxCell>
        <mxCell id="onvc5o5PFU3YK8fuT-k9-69" value="" style="endArrow=none;html=1;rounded=0;sketch=1;fontFamily=Comic Sans MS;fontSize=12;entryX=1;entryY=0.5;entryDx=0;entryDy=0;exitX=1.075;exitY=0.466;exitDx=0;exitDy=0;exitPerimeter=0;" edge="1" parent="1" source="onvc5o5PFU3YK8fuT-k9-2" target="onvc5o5PFU3YK8fuT-k9-63">
          <mxGeometry width="50" height="50" relative="1" as="geometry">
            <mxPoint x="480" y="780" as="sourcePoint" />
            <mxPoint x="530" y="730" as="targetPoint" />
          </mxGeometry>
        </mxCell>
        <mxCell id="onvc5o5PFU3YK8fuT-k9-73" value="" style="dashed=0;outlineConnect=0;html=1;align=center;labelPosition=center;verticalLabelPosition=bottom;verticalAlign=top;shape=mxgraph.weblogos.json_2;sketch=1;fillStyle=solid;strokeColor=#6C8EBF;fontFamily=Comic Sans MS;fontSize=12;fillColor=#6C8EBF;" vertex="1" parent="1">
          <mxGeometry x="272.4" y="440" width="70.2" height="23" as="geometry" />
        </mxCell>
      </root>
    </mxGraphModel>
  </diagram>
</mxfile>
